<?xml version="1.0" encoding="utf-8"?>
<svg version="1.1" xmlns:xlink="http://www.w3.org/1999/xlink" width="300px" height="147px" xmlns="http://www.w3.org/2000/svg">
  <g transform="matrix(1 0 0 1 -317 -162 )">
    <path d="M 317 162  L 617 162  L 617 309  L 317 309  L 317 162  " fill-rule="nonzero" fill="#cccccc" stroke="none" />
    <path d="M 327 172  L 607 172  L 607 299  L 327 299  L 327 172  " fill-rule="nonzero" fill="#ffffff" stroke="none" />
    <path d="M 484.025 206.10000000000002  C 477.851 206.10000000000002  473 201.24900000000002  473 195.07500000000002  C 473 188.901  477.851 184.05  484.025 184.05  C 490.199 184.05  495.05 188.901  495.05 195.07500000000002  C 495.05 201.24900000000002  490.199 206.10000000000002  484.025 206.10000000000002  " fill-rule="nonzero" fill="#cccccc" stroke="none" />
    <path d="M 331 296  L 331 230  L 399.25 200  L 494.79999999999995 260.72  L 549.4 218  L 604 260.72  L 604 296  L 331 296  " fill-rule="nonzero" fill="#169bd5" stroke="none" />
  </g>
</svg>